<?xml version="1.0" encoding="UTF-8" standalone="no"?>
<svg
   id="Layer_1"
   viewBox="0 0 1053.51 323.76"
   version="1.1"
   xmlns="http://www.w3.org/2000/svg"
   xmlns:svg="http://www.w3.org/2000/svg">
  <defs
     id="defs1">
    <style
       id="style1">.cls-1{fill:#fff;}</style>
  </defs>
  <path
     class="cls-1"
     d="M877.59,59.32c0,2.83-2.32,5.16-5.16,5.16h-10.45c-2.83,0-5.16-2.33-5.16-5.16v-10.46c0-2.86,2.33-5.16,5.16-5.16h10.45c2.84,0,5.16,2.3,5.16,5.16v10.46Z"
     id="path1"
     style="fill:#000000" />
  <path
     class="cls-1"
     d="M524.81,227.19h-69.34c-5.83,0-11.21-2.29-15.18-6.42-3.94-4.12-6-9.6-5.76-15.43l.97-22.68c.54-12.33,11.4-22.74,23.74-22.74h73.85v58.99c0,4.56-3.73,8.29-8.29,8.29M515.43,71.72h-10.76c-15.96,0-37.53,1.34-48.07,2.96l-11.52,1.81c-2.08.32-2.99,2.09-1.97,3.97l.89,1.69,3.43,6.43,3.45,6.45c.5.91,1.76,1.53,2.79,1.38l2.15-.32,2.11-.34,1.91-.29c9.46-1.44,29.98-2.7,44.81-2.7h10.76c9.7,0,17.66,7.93,17.66,17.64v28.5h-73.85c-23.68,0-43.73,19.23-44.76,42.9l-.93,22.65c-.52,11.61,3.57,22.59,11.56,30.91,7.96,8.29,18.72,12.86,30.36,12.86h69.34c16.13,0,29.27-13.14,29.27-29.29v-108.52c0-21.31-17.35-38.66-38.65-38.66"
     id="path2"
     style="fill:#000000" />
  <path
     class="cls-1"
     d="M1024.25,227.19h-69.35c-5.83,0-11.26-2.29-15.18-6.42-3.97-4.12-6.02-9.6-5.78-15.43l.99-22.68c.48-12.33,11.42-22.74,23.74-22.74h73.82v58.99c0,4.56-3.72,8.29-8.25,8.29M1014.84,71.72h-10.72c-15.99,0-37.54,1.34-48.09,2.96l-11.51,1.81c-2.11.32-2.99,2.09-1.98,3.97l7.77,14.56c.51.91,1.76,1.53,2.81,1.38l2.14-.32,4.01-.64c9.48-1.44,30.02-2.7,44.85-2.7h10.72c9.75,0,17.65,7.93,17.65,17.64v28.5h-73.82c-23.67,0-43.71,19.23-44.76,42.9l-.98,22.65c-.47,11.61,3.64,22.59,11.6,30.91,7.97,8.29,18.76,12.86,30.37,12.86h69.35c16.15,0,29.26-13.14,29.26-29.29v-108.52c0-21.31-17.33-38.66-38.67-38.66"
     id="path3"
     style="fill:#000000" />
  <path
     class="cls-1"
     d="M820.5,246.36l-8.29-15.3c-1.08-1.25-3.06-2.31-4.87-2.71h-10.96c-3.99,0-9.69-6.87-9.69-17.66l-.03-202.94c0-4.29-3.51-7.76-7.76-7.76h-5.51c-4.29,0-7.74,3.47-7.74,7.76v202.94c0,9.67,2.8,18.89,7.9,26,5.76,8.06,14.08,12.67,22.83,12.67h4.65l.05-.06,18.47-.06c1.81-.17,2.23-1.4.95-2.88"
     id="path4"
     style="fill:#000000" />
  <path
     class="cls-1"
     d="M877.47,86.59c0-4.27-3.46-7.72-7.72-7.72h-5.52c-4.26,0-7.75,3.45-7.75,7.72l.03,156.9c0,4.25,3.48,7.73,7.72,7.73h5.58c4.25,0,7.69-3.48,7.69-7.73l-.02-156.9Z"
     id="path5"
     style="fill:#000000" />
  <path
     class="cls-1"
     d="M681.38,226.76h-46.74c-6.25,0-12.22-2.72-16.79-7.65-4.02-4.33-6.5-9.94-7.2-15.99,0,0-.14-87.15-.14-87.63,0-3,.63-5.96,2-8.68.93-2.95,3.51-5.7,7.67-8.02,2.29-1.4,5.08-2.58,8.32-3.41,7.21-2.13,16.66-3.33,27.99-3.05,18.9.44,34.97,4.7,41.42,10.89,4.22,3.84,5.69,8.34,6,12.55l.1.22.43,84.89c0,14.28-10.34,25.88-23.07,25.88M725.02,111.29c-.8-10.13-6.09-18.22-11.75-23.35-9.35-9-29.33-15.17-56.71-15.82-16.49-.39-30.2,1.32-40.61,4.42-4.77,1.22-26.5,6.17-26.5,35.88l.17,209.66c.15,1.79,1.37,2.22,2.9.93l15.28-13.29c1.59-1.38,2.91-4.22,2.91-6.37v-62.92c7.08,4.77,15.35,7.32,23.94,7.32h46.74c24.31,0,44.09-21,44.09-46.88v-31.48l.05-1.05-.48-52.98c0-1.33-.03-2.7-.03-4.07"
     id="path6"
     style="fill:#000000" />
  <path
     class="cls-1"
     d="M167.25,12.83c-23.31,0-44.59,13.25-54.86,34.18L2.35,263.71c-5.84,12.52-.42,27.4,12.09,33.24,12.15,5.67,26.61.75,32.78-11.16l108.19-211.91c11.2-21.46,37.67-29.77,59.12-18.57,2.69,1.41,5.24,3.09,7.58,5.02h-.03c1.01.95,2.6.89,3.55-.12.44-.47.68-1.08.68-1.72l-.13-.78c-7.3-26.52-31.42-44.89-58.92-44.89"
     id="path7"
     style="fill:#000000" />
  <path
     class="cls-1"
     d="M196.09,63.38c-11.58,0-23.12,6.48-28.69,16.64h0c-1.22,2.05-2.21,4.22-2.97,6.48v.09c0,1.39,1.12,2.51,2.51,2.52h0c.28-.05.55-.12.82-.22,1.34-.44,2.74-.63,4.15-.57,5.6,0,10.72,3.14,13.26,8.14l75.54,150.79c10.57,21.77,1.5,47.98-20.27,58.55-2.75,1.34-5.63,2.38-8.6,3.12v-.03c-.63.11-1.18.46-1.56.97-.83,1.11-.59,2.69.52,3.51,0,0,0,0,0,0l.71.36c31.47,12.19,66.87-3.44,79.07-34.91,6.32-16.31,5.35-34.55-2.67-50.09l-74.04-145.31c-8.02-12.02-23.28-20.02-37.76-20.02"
     id="path8"
     style="fill:#000000" />
  <path
     class="cls-1"
     d="M153.99,232.95c-.63,0-1.26,0-1.9.08-12.56,1.03-21.92,12.04-20.89,24.6.7,8.56,6.15,16.01,14.1,19.26l49.56,19.85c2.05.77,6.13,1.85,6.13,1.85,3.13.78,6.35,1.16,9.58,1.14,10.73,0,22.35-3.93,30.27-11.02,8.29-7.41,12.4-19.44,9.87-30.27h0c-.44-2.25-1.12-4.44-2.02-6.54l-.07-.05c-.89-.99-2.42-1.08-3.42-.19-.17.21-.31.44-.44.68-.68,1.17-1.56,2.21-2.6,3.08-4.01,3.59-9.69,4.62-14.7,2.67l-65.55-23.7c-2.53-.94-5.22-1.43-7.92-1.43"
     id="path9"
     style="fill:#000000" />
</svg>
