<?xml version="1.0" encoding="UTF-8" standalone="no"?>
<!-- Generator: Adobe Illustrator 19.0.0, SVG Export Plug-In . SVG Version: 6.00 Build 0)  -->

<svg
   version="1.1"
   id="layer"
   x="0px"
   y="0px"
   viewBox="-153 -46 600.09998 208.8"
   xml:space="preserve"
   width="600.09998"
   height="208.8"
   xmlns="http://www.w3.org/2000/svg"
   xmlns:svg="http://www.w3.org/2000/svg"><defs
   id="defs4" />
<style
   type="text/css"
   id="style1">
	.st0{fill:#06BFFC;}
	.st1{fill:#0063FC;}
	.st2{fill:#FFFFFF;}
</style>
<path
   class="st0"
   d="M 433.4,143.1 V -26.5 c 0,-3.3 -2.6,-6.2 -6.2,-6.2 H 62.3 c -3.3,0 -6.2,2.6 -6.2,6.2 v 175.4 h 371.4 c 3.3,0.1 5.9,-2.6 5.9,-5.8"
   id="path1" />
<path
   class="st1"
   d="m -79.5,-32.4 h -53.8 c -3.3,0 -5.9,2.6 -5.9,5.9 v 169.6 c 0,3.3 2.6,6.2 6.2,6.2 H 42.8 v -60 C 42.4,22.1 -12,-32.4 -79.5,-32.4"
   id="path2" />
<path
   class="st2"
   d="M 427.5,-46 H 62.3 c -10.8,0 -19.6,8.8 -19.6,19.6 V 30.3 C 20.5,-14.7 -26.1,-46 -79.6,-46 h -53.8 c -10.8,0 -19.6,8.8 -19.6,19.6 v 169.6 c 0,10.8 8.8,19.6 19.6,19.6 h 560.9 c 10.8,0 19.6,-8.8 19.6,-19.6 V -26.5 c 0,-10.7 -8.8,-19.5 -19.6,-19.5 m 5.9,189.1 c 0,3.3 -2.6,6.2 -6.2,6.2 H 56.1 V -26.5 c 0,-3.3 2.6,-6.2 6.2,-6.2 h 365.2 c 3.3,0 6.2,2.6 6.2,6.2 v 169.6 z m -572.6,0 V -26.5 c 0,-3.3 2.6,-5.9 5.9,-5.9 h 53.8 c 67.2,0 122,54.8 122,122 v 59.7 h -175.8 c -3.3,-0.3 -5.9,-3 -5.9,-6.2"
   id="path3" />
<path
   class="st2"
   d="m 206.1,22.8 h -13.7 c -2.3,0 -3.9,1.6 -3.9,3.9 v 62.9 c 0,2.3 1.6,3.9 3.9,3.9 h 13.7 c 2.3,0 3.9,-1.6 3.9,-3.9 V 26.7 c 0,-2 -1.9,-3.9 -3.9,-3.9 m -39.1,0 h -49.2 c -2.3,0 -3.9,1.6 -3.9,3.9 v 62.9 c 0,2.3 1.6,3.9 3.9,3.9 h 13.7 c 2.3,0 3.9,-1.6 3.9,-3.9 v -13 h 25.1 c 2.3,0 3.9,-1.6 3.9,-3.9 V 62.3 c 0,-2.3 -1.6,-3.9 -3.9,-3.9 h -25.1 v -16 H 167 c 2.3,0 3.9,-1.6 3.9,-3.9 V 26.3 c 0,-1.6 -2,-3.5 -3.9,-3.5 m 204.8,0 h -13.7 c -2.3,0 -3.9,1.6 -3.9,3.9 v 31 L 332.7,25.1 c -1,-1.3 -2.6,-2.3 -4.2,-2.3 h -10.4 c -2.3,0 -3.9,1.6 -3.9,3.9 v 62.9 c 0,2.3 1.6,3.9 3.9,3.9 h 13.7 c 2.3,0 3.9,-1.6 3.9,-3.9 V 58.9 l 21.2,32 c 1,1.3 2.6,2.3 4.2,2.3 h 11 c 2.3,0 3.9,-1.6 3.9,-3.9 V 26.7 c -0.3,-2 -1.9,-3.9 -4.2,-3.9 m -82.9,0 h -13.7 c -2.3,0 -3.9,1.6 -3.9,3.9 v 31 L 249.8,25.1 c -1,-1.3 -2.6,-2.3 -4.2,-2.3 h -10.5 c -2.3,0 -3.9,1.6 -3.9,3.9 v 62.9 c 0,2.3 1.6,3.9 3.9,3.9 h 13.7 c 2.3,0 3.9,-1.6 3.9,-3.9 V 58.9 l 21.2,32 c 1,1.3 2.6,2.3 4.2,2.3 h 11.1 c 2.3,0 3.9,-1.6 3.9,-3.9 V 26.7 c -0.2,-2 -1.9,-3.9 -4.2,-3.9"
   id="path4" />
</svg>
