<?xml version="1.0" encoding="utf-8"?>
<!-- Generator: Adobe Illustrator 24.0.2, SVG Export Plug-In . SVG Version: 6.00 Build 0)  -->
<svg version="1.1" id="Layer_1" xmlns="http://www.w3.org/2000/svg" xmlns:xlink="http://www.w3.org/1999/xlink" x="0px" y="0px"
	 viewBox="0 0 315 89" style="enable-background:new 0 0 315 89;" xml:space="preserve">
<path d="M307,59.2v22h-22v8h30v-30H307z M92.9,28.4H81l-9.9,27.9V28.4H56.5l-4.6,21.8h-0.1l-4.8-21.8H32.6v32.6h8.1V36.4h0.1
	l5.8,24.5h9.3l6.2-24.5h0.1v24.5h16.6l1.8-5.4h11.7l1.7,5.4h10.5L92.9,28.4z M82.9,48.3L86.6,37l3.5,11.4L82.9,48.3z M154.5,45.1
	c-3-3.9-13.5-5.3-15-7.3c-0.3-0.4-0.4-1-0.4-1.5c0-1.7,1.1-2.8,3.1-2.8c1-0.1,2,0.2,2.8,0.9c0.8,1,1.3,2.3,1.2,3.6h9.4
	c-0.1-6.7-3.1-10.5-12.7-10.5c-7.1,0-11.4,2-12.9,6.2c-0.2-0.7-0.6-1.3-1-1.9c-2-2.7-6-4.2-11.6-4.2c-12.7,0-15.1,9.4-15.1,17.1
	c0,10.4,3.7,17.1,15.1,17.1c4.9,0,9.3-1.5,11.9-5c0.3-0.4,0.5-0.8,0.7-1.2c1.2,3.5,4.3,6.2,12.2,6.2c10.4,0,14.3-4.2,14.3-10.6
	C156.5,49,155.8,46.9,154.5,45.1L154.5,45.1z M142.2,55.7c-1.1,0.1-2.1-0.4-2.7-1.3c-0.6-0.8-0.9-3.4-0.9-5.2h-17.3
	c-0.1,4.2-1.5,5.5-4.4,5.5c-3.7,0-5-4.6-5-10s1.3-10,5-10c2.6,0,3.8,1.8,4,5.8h8.4c0.2,1.1,0.6,2.2,1.3,3.1c3,3.8,13.9,5.4,15.2,7.4
	c0.3,0.4,0.4,1,0.4,1.5C146.4,55,144.2,55.7,142.2,55.7z M157.4,28.4h9.6v32.6h-9.6L157.4,28.4z M170.9,28.4h14.5l4.8,21.8h0.1
	l4.6-21.8h14.6v32.6h-8.9V36.4h-0.1l-6.2,24.5H185l-5.9-24.5h-0.1v24.5h-8.1L170.9,28.4z M213.3,28.4h9.3v17.9
	c0,6.2,1.5,8.2,4.4,8.2s4.4-1.9,4.4-8.2V28.4h9v19c0,5.1-0.7,7.3-2.2,9.5c-2.3,3.4-6.3,4.9-11.4,4.9s-9.1-1.4-11.4-4.9
	c-1.5-2.2-2.2-4.4-2.2-9.5L213.3,28.4z M244.2,28.4h14.5l4.8,21.8h0.1l4.6-21.8h14.5v32.6h-8.9V36.4h-0.1l-6.2,24.5h-9.3l-5.9-24.5
	h-0.1v24.5h-8.1L244.2,28.4z M30,0H0v30h8V8h22V0z"/>
</svg>
